<svg width="74" height="17" viewBox="0 0 74 17" fill="none" xmlns="http://www.w3.org/2000/svg">
<path d="M0.310547 16V0.445312H3.5332V6.89062H10.2793V0.445312H13.5234V16H10.2793V9.55469H3.5332V16H0.310547ZM15.1992 0.445312H18.8301L22.418 7.14844H22.5684L26.1348 0.445312H29.7656L24.0938 10.457V16H20.8711V10.457L15.1992 0.445312ZM31.4414 16V0.445312H41.8828V3.10938H34.6641V6.89062H41.3457V9.55469H34.6641V13.3359H41.9043V16H31.4414ZM58.6406 8.22266C58.6406 13.293 55.4824 16.2148 51.3789 16.2148C47.2324 16.2148 44.0957 13.2715 44.0957 8.22266C44.0957 3.15234 47.2324 0.230469 51.3789 0.230469C55.4824 0.230469 58.6406 3.15234 58.6406 8.22266ZM55.3535 8.22266C55.3535 4.89258 53.7852 3.08789 51.3789 3.08789C48.9727 3.08789 47.3828 4.89258 47.3828 8.22266C47.3828 11.5527 48.9727 13.3574 51.3789 13.3574C53.7852 13.3574 55.3535 11.5527 55.3535 8.22266ZM73.9375 0.445312V16H71.1445L64.3125 6.11719H64.1836V16H60.9609V0.445312H63.7969L70.5859 10.3281H70.7363V0.445312H73.9375Z" fill="black"/>
</svg>
